<svg xmlns="http://www.w3.org/2000/svg" viewBox="0 0 22.35 11.81"><defs><style>.cls-1{fill:#999;}</style></defs><title>Asset 3</title><g id="Layer_2" data-name="Layer 2"><g id="Layer_1-2" data-name="Layer 1"><path class="cls-1" d="M1,11.81H0A7,7,0,0,0,.75,10L2.67,3.55A14.84,14.84,0,0,1,3.4,1.48,2.77,2.77,0,0,1,4.3.39,2.37,2.37,0,0,1,5.67,0,1.89,1.89,0,0,1,7,.45a1.55,1.55,0,0,1,.5,1.2c0,1.11-.68,1.91-2,2.39A2,2,0,0,1,6.69,5.93a3.3,3.3,0,0,1-.88,2.23,2.76,2.76,0,0,1-2.2,1,2.82,2.82,0,0,1-.71-.09,2.12,2.12,0,0,1-.79-.47A14.85,14.85,0,0,1,1,11.81Zm1.33-3.7a1.36,1.36,0,0,0,1.23.74c.63,0,1.14-.4,1.55-1.19a4.72,4.72,0,0,0,.6-2.07,1.66,1.66,0,0,0-.62-1.43,3.12,3.12,0,0,1-.59.09c-.28,0-.41-.1-.41-.28s.11-.26.34-.26a1.62,1.62,0,0,1,.73.19,2.66,2.66,0,0,0,1-1.1,3.15,3.15,0,0,0,.41-1.51A1.08,1.08,0,0,0,6.31.55.77.77,0,0,0,5.69.28a1.2,1.2,0,0,0-.8.33,2.3,2.3,0,0,0-.62,1C4.12,2,3.86,2.83,3.5,4Z"/><path class="cls-1" d="M8.67,6.63a3.79,3.79,0,0,0,0,.53,1.28,1.28,0,0,0,.4,1,1.3,1.3,0,0,0,1,.4,2.08,2.08,0,0,0,.88-.19,6.64,6.64,0,0,0,1.25-.83l.14.19A4.28,4.28,0,0,1,9.4,9.18,1.69,1.69,0,0,1,8,8.59a2,2,0,0,1-.47-1.28,3.8,3.8,0,0,1,.58-1.94A4.44,4.44,0,0,1,9.58,3.83a3.36,3.36,0,0,1,1.82-.55,1.52,1.52,0,0,1,1,.27.83.83,0,0,1,.33.65,1.52,1.52,0,0,1-.42,1,3.87,3.87,0,0,1-1.63,1A8.82,8.82,0,0,1,8.67,6.63Zm.05-.31A5.2,5.2,0,0,0,10.25,6a3.09,3.09,0,0,0,1.17-.83,1.49,1.49,0,0,0,.39-.92.6.6,0,0,0-.17-.44.65.65,0,0,0-.48-.16,2.06,2.06,0,0,0-1.37.69A4.09,4.09,0,0,0,8.72,6.32Z"/><path class="cls-1" d="M16.18,1.71l-.5,1.72h1l-.11.4h-1L14.49,7.58a3.66,3.66,0,0,0-.18.78.23.23,0,0,0,0,.16.17.17,0,0,0,.12.06.71.71,0,0,0,.42-.22,6.6,6.6,0,0,0,.68-.78l.21.16a4.53,4.53,0,0,1-1.1,1.2,1.29,1.29,0,0,1-.72.24A.62.62,0,0,1,13.51,9a.6.6,0,0,1-.17-.44,4,4,0,0,1,.2-1.05L14.6,3.83h-1l.06-.24A3.2,3.2,0,0,0,14.87,3a5.48,5.48,0,0,0,1-1.31Z"/><path class="cls-1" d="M22.35,3.28l-1.24,4.3L21,8.16a.93.93,0,0,0,0,.14.28.28,0,0,0,.06.18.18.18,0,0,0,.13.06.46.46,0,0,0,.22-.1A4.22,4.22,0,0,0,22,7.67l.21.16a3.89,3.89,0,0,1-.9,1,1.48,1.48,0,0,1-.86.35.54.54,0,0,1-.4-.14.49.49,0,0,1-.14-.39,3.41,3.41,0,0,1,.14-.82l.13-.48a6.19,6.19,0,0,1-1.53,1.52,1.82,1.82,0,0,1-1,.31,1,1,0,0,1-.8-.39,1.49,1.49,0,0,1-.34-1,4.45,4.45,0,0,1,.61-2.13A5.1,5.1,0,0,1,18.7,3.82a2.33,2.33,0,0,1,1.38-.54,1,1,0,0,1,.64.21,1.23,1.23,0,0,1,.39.67l.23-.73Zm-2.26.33a1.43,1.43,0,0,0-.87.38,4.78,4.78,0,0,0-1.15,1.6,4.64,4.64,0,0,0-.5,1.92,1,1,0,0,0,.21.68.64.64,0,0,0,.5.25q.69,0,1.5-1a4.4,4.4,0,0,0,1.09-2.79,1.17,1.17,0,0,0-.21-.78A.72.72,0,0,0,20.09,3.61Z"/></g></g></svg>